<?xml version="1.0" ?><svg id="Layer_1" style="enable-background:new 0 0 32 32;" version="1.1" viewBox="0 0 32 32" xml:space="preserve" xmlns="http://www.w3.org/2000/svg" xmlns:xlink="http://www.w3.org/1999/xlink"><style type="text/css">
	.st0{fill:none;stroke:#000000;stroke-width:2;stroke-miterlimit:10;}
</style><path class="st0" d="M19.5,16c0,1.933-1.567,3.5-3.5,3.5s-3.5-1.567-3.5-3.5s1.567-3.5,3.5-3.5S19.5,14.067,19.5,16z M19.5,4.5  C19.5,6.433,17.933,8,16,8s-3.5-1.567-3.5-3.5S14.067,1,16,1S19.5,2.567,19.5,4.5z M19.5,27.5c0,1.933-1.567,3.5-3.5,3.5  s-3.5-1.567-3.5-3.5S14.067,24,16,24S19.5,25.567,19.5,27.5z"/></svg>